<mxfile host="app.diagrams.net" modified="2022-01-05T06:02:51.749Z" agent="5.0 (X11; Linux x86_64) AppleWebKit/537.36 (KHTML, like Gecko) Chrome/96.0.4664.110 Safari/537.36" etag="SeOz6u34Im-xlsXSIQ3M" version="16.1.4" type="github" pages="2">
  <diagram id="tb1Oh87HVTWQbizAyNp_" name="Page-1">
    <mxGraphModel dx="1990" dy="1133" grid="1" gridSize="10" guides="1" tooltips="1" connect="1" arrows="1" fold="1" page="1" pageScale="1" pageWidth="827" pageHeight="1169" math="0" shadow="0">
      <root>
        <mxCell id="0" />
        <mxCell id="1" parent="0" />
        <mxCell id="r3CdGSNLSoonVnB5vRf6-3" value="CamHal" style="rounded=0;whiteSpace=wrap;html=1;verticalAlign=top;" vertex="1" parent="1">
          <mxGeometry x="118" y="663" width="179" height="87" as="geometry" />
        </mxCell>
        <mxCell id="r3CdGSNLSoonVnB5vRf6-4" value="AisDevice" style="rounded=0;whiteSpace=wrap;html=1;" vertex="1" parent="1">
          <mxGeometry x="169" y="696" width="80" height="35" as="geometry" />
        </mxCell>
        <mxCell id="r3CdGSNLSoonVnB5vRf6-5" value="Common" style="rounded=0;whiteSpace=wrap;html=1;verticalAlign=top;" vertex="1" parent="1">
          <mxGeometry x="338" y="663" width="340" height="87" as="geometry" />
        </mxCell>
        <mxCell id="r3CdGSNLSoonVnB5vRf6-6" value="WaterMark" style="rounded=0;whiteSpace=wrap;html=1;" vertex="1" parent="1">
          <mxGeometry x="404" y="696" width="80" height="35" as="geometry" />
        </mxCell>
        <mxCell id="r3CdGSNLSoonVnB5vRf6-7" value="SqliteHelper" style="rounded=0;whiteSpace=wrap;html=1;" vertex="1" parent="1">
          <mxGeometry x="509" y="696" width="80" height="35" as="geometry" />
        </mxCell>
        <mxCell id="r3CdGSNLSoonVnB5vRf6-9" value="" style="rounded=0;whiteSpace=wrap;html=1;" vertex="1" parent="1">
          <mxGeometry x="118" y="550" width="560" height="90" as="geometry" />
        </mxCell>
        <mxCell id="r3CdGSNLSoonVnB5vRf6-10" value="NativeCam" style="rounded=0;whiteSpace=wrap;html=1;" vertex="1" parent="1">
          <mxGeometry x="174.25" y="575" width="110.5" height="40" as="geometry" />
        </mxCell>
        <mxCell id="r3CdGSNLSoonVnB5vRf6-11" value="AVMCam" style="rounded=0;whiteSpace=wrap;html=1;" vertex="1" parent="1">
          <mxGeometry x="320" y="575" width="110.5" height="40" as="geometry" />
        </mxCell>
        <mxCell id="r3CdGSNLSoonVnB5vRf6-12" value="EnthCam" style="rounded=0;whiteSpace=wrap;html=1;" vertex="1" parent="1">
          <mxGeometry x="474.75" y="575" width="110.5" height="40" as="geometry" />
        </mxCell>
        <mxCell id="r3CdGSNLSoonVnB5vRf6-13" value="" style="rounded=0;whiteSpace=wrap;html=1;" vertex="1" parent="1">
          <mxGeometry x="118" y="420" width="560" height="90" as="geometry" />
        </mxCell>
        <mxCell id="r3CdGSNLSoonVnB5vRf6-14" value="CameraServiceImpl" style="rounded=0;whiteSpace=wrap;html=1;" vertex="1" parent="1">
          <mxGeometry x="200" y="450" width="129" height="40" as="geometry" />
        </mxCell>
        <mxCell id="r3CdGSNLSoonVnB5vRf6-15" value="CameraServiceClient" style="rounded=0;whiteSpace=wrap;html=1;" vertex="1" parent="1">
          <mxGeometry x="474.75" y="450" width="129" height="40" as="geometry" />
        </mxCell>
        <mxCell id="r3CdGSNLSoonVnB5vRf6-16" value="" style="endArrow=classic;html=1;rounded=0;exitX=0.25;exitY=1;exitDx=0;exitDy=0;entryX=0.5;entryY=0;entryDx=0;entryDy=0;" edge="1" parent="1" source="r3CdGSNLSoonVnB5vRf6-9" target="r3CdGSNLSoonVnB5vRf6-3">
          <mxGeometry width="50" height="50" relative="1" as="geometry">
            <mxPoint x="488" y="560" as="sourcePoint" />
            <mxPoint x="538" y="510" as="targetPoint" />
          </mxGeometry>
        </mxCell>
        <mxCell id="r3CdGSNLSoonVnB5vRf6-17" value="" style="endArrow=classic;html=1;rounded=0;exitX=0.5;exitY=1;exitDx=0;exitDy=0;entryX=0.5;entryY=0;entryDx=0;entryDy=0;" edge="1" parent="1" source="r3CdGSNLSoonVnB5vRf6-9" target="r3CdGSNLSoonVnB5vRf6-5">
          <mxGeometry width="50" height="50" relative="1" as="geometry">
            <mxPoint x="488" y="560" as="sourcePoint" />
            <mxPoint x="538" y="510" as="targetPoint" />
          </mxGeometry>
        </mxCell>
        <mxCell id="r3CdGSNLSoonVnB5vRf6-18" value="" style="endArrow=classic;html=1;rounded=0;exitX=0.25;exitY=1;exitDx=0;exitDy=0;entryX=0.25;entryY=0;entryDx=0;entryDy=0;" edge="1" parent="1" source="r3CdGSNLSoonVnB5vRf6-13" target="r3CdGSNLSoonVnB5vRf6-9">
          <mxGeometry width="50" height="50" relative="1" as="geometry">
            <mxPoint x="488" y="560" as="sourcePoint" />
            <mxPoint x="538" y="510" as="targetPoint" />
          </mxGeometry>
        </mxCell>
        <mxCell id="r3CdGSNLSoonVnB5vRf6-19" value="" style="endArrow=classic;html=1;rounded=0;exitX=0.75;exitY=1;exitDx=0;exitDy=0;entryX=0.75;entryY=0;entryDx=0;entryDy=0;" edge="1" parent="1" source="r3CdGSNLSoonVnB5vRf6-13" target="r3CdGSNLSoonVnB5vRf6-9">
          <mxGeometry width="50" height="50" relative="1" as="geometry">
            <mxPoint x="488" y="560" as="sourcePoint" />
            <mxPoint x="538" y="510" as="targetPoint" />
          </mxGeometry>
        </mxCell>
        <mxCell id="r3CdGSNLSoonVnB5vRf6-20" value="" style="endArrow=none;dashed=1;html=1;dashPattern=1 3;strokeWidth=2;rounded=0;" edge="1" parent="1">
          <mxGeometry width="50" height="50" relative="1" as="geometry">
            <mxPoint x="100" y="370" as="sourcePoint" />
            <mxPoint x="750" y="370" as="targetPoint" />
          </mxGeometry>
        </mxCell>
        <mxCell id="r3CdGSNLSoonVnB5vRf6-21" value="Proxy" style="rounded=0;whiteSpace=wrap;html=1;" vertex="1" parent="1">
          <mxGeometry x="620" y="240" width="120" height="60" as="geometry" />
        </mxCell>
        <mxCell id="r3CdGSNLSoonVnB5vRf6-23" value="msp" style="endArrow=classic;html=1;rounded=0;exitX=0.5;exitY=1;exitDx=0;exitDy=0;entryX=0.75;entryY=0;entryDx=0;entryDy=0;" edge="1" parent="1" source="r3CdGSNLSoonVnB5vRf6-21" target="r3CdGSNLSoonVnB5vRf6-15">
          <mxGeometry width="50" height="50" relative="1" as="geometry">
            <mxPoint x="600" y="330" as="sourcePoint" />
            <mxPoint x="650" y="280" as="targetPoint" />
          </mxGeometry>
        </mxCell>
        <mxCell id="r3CdGSNLSoonVnB5vRf6-25" value="Jni" style="text;html=1;strokeColor=none;fillColor=none;align=center;verticalAlign=middle;whiteSpace=wrap;rounded=0;" vertex="1" parent="1">
          <mxGeometry x="88" y="347" width="60" height="30" as="geometry" />
        </mxCell>
      </root>
    </mxGraphModel>
  </diagram>
  <diagram id="Vr9krDSfsFgZfgIQ5jhV" name="Page-2">
    <mxGraphModel dx="2341" dy="1333" grid="1" gridSize="10" guides="1" tooltips="1" connect="1" arrows="1" fold="1" page="1" pageScale="1" pageWidth="827" pageHeight="1169" math="0" shadow="0">
      <root>
        <mxCell id="u3Q_NO3_-VGqsI23rNcN-0" />
        <mxCell id="u3Q_NO3_-VGqsI23rNcN-1" parent="u3Q_NO3_-VGqsI23rNcN-0" />
        <mxCell id="lzBk6uFQj6bkeU6I54EV-72" value="" style="endArrow=none;dashed=1;html=1;rounded=0;labelBorderColor=none;fontColor=#000000;" edge="1" parent="u3Q_NO3_-VGqsI23rNcN-1">
          <mxGeometry width="50" height="50" relative="1" as="geometry">
            <mxPoint x="80" y="887" as="sourcePoint" />
            <mxPoint x="1040" y="887" as="targetPoint" />
          </mxGeometry>
        </mxCell>
        <mxCell id="lzBk6uFQj6bkeU6I54EV-21" value="" style="endArrow=none;dashed=1;html=1;rounded=0;labelBorderColor=none;fontColor=#000000;" edge="1" parent="u3Q_NO3_-VGqsI23rNcN-1">
          <mxGeometry width="50" height="50" relative="1" as="geometry">
            <mxPoint x="80" y="417" as="sourcePoint" />
            <mxPoint x="1040" y="417" as="targetPoint" />
          </mxGeometry>
        </mxCell>
        <mxCell id="lzBk6uFQj6bkeU6I54EV-19" value="HHTCameraService" style="rounded=0;whiteSpace=wrap;html=1;verticalAlign=top;align=left;fillColor=#e1d5e7;strokeColor=#9673a6;" vertex="1" parent="u3Q_NO3_-VGqsI23rNcN-1">
          <mxGeometry x="137" y="440" width="850" height="410" as="geometry" />
        </mxCell>
        <mxCell id="lzBk6uFQj6bkeU6I54EV-20" value="&lt;span style=&quot;&quot;&gt;CameraServiceManager&lt;/span&gt;" style="rounded=0;whiteSpace=wrap;html=1;verticalAlign=top;align=center;fillColor=#FFF2CC;" vertex="1" parent="u3Q_NO3_-VGqsI23rNcN-1">
          <mxGeometry x="137" y="284" width="850" height="95" as="geometry" />
        </mxCell>
        <mxCell id="u3Q_NO3_-VGqsI23rNcN-11" value="Impl" style="rounded=0;whiteSpace=wrap;html=1;verticalAlign=top;align=left;fillColor=#e1d5e7;strokeColor=#9673a6;" vertex="1" parent="u3Q_NO3_-VGqsI23rNcN-1">
          <mxGeometry x="150" y="610" width="820" height="90" as="geometry" />
        </mxCell>
        <mxCell id="u3Q_NO3_-VGqsI23rNcN-2" value="LoopRecord" style="rounded=0;whiteSpace=wrap;html=1;align=center;verticalAlign=middle;fillColor=#e1d5e7;strokeColor=#9673a6;" vertex="1" parent="u3Q_NO3_-VGqsI23rNcN-1">
          <mxGeometry x="207" y="635.51" width="110" height="48.72" as="geometry" />
        </mxCell>
        <mxCell id="u3Q_NO3_-VGqsI23rNcN-14" value="Hal" style="rounded=0;whiteSpace=wrap;html=1;verticalAlign=top;align=left;fillColor=#e1d5e7;strokeColor=#9673a6;" vertex="1" parent="u3Q_NO3_-VGqsI23rNcN-1">
          <mxGeometry x="150" y="755.18" width="820" height="87.82" as="geometry" />
        </mxCell>
        <mxCell id="u3Q_NO3_-VGqsI23rNcN-15" value="AisDevice" style="rounded=0;whiteSpace=wrap;html=1;align=center;verticalAlign=middle;fillColor=#e1d5e7;strokeColor=#9673a6;" vertex="1" parent="u3Q_NO3_-VGqsI23rNcN-1">
          <mxGeometry x="458.5" y="779.18" width="203" height="47.82" as="geometry" />
        </mxCell>
        <mxCell id="u3Q_NO3_-VGqsI23rNcN-16" value="" style="endArrow=classic;html=1;rounded=0;entryX=0.5;entryY=1;entryDx=0;entryDy=0;fillColor=#f8cecc;strokeColor=#0000CC;startArrow=classic;startFill=1;exitX=0.5;exitY=0;exitDx=0;exitDy=0;" edge="1" parent="u3Q_NO3_-VGqsI23rNcN-1" source="u3Q_NO3_-VGqsI23rNcN-14" target="u3Q_NO3_-VGqsI23rNcN-11">
          <mxGeometry width="50" height="50" relative="1" as="geometry">
            <mxPoint x="230" y="794.73" as="sourcePoint" />
            <mxPoint x="560" y="723" as="targetPoint" />
          </mxGeometry>
        </mxCell>
        <mxCell id="u3Q_NO3_-VGqsI23rNcN-19" value="" style="endArrow=classic;html=1;rounded=0;exitX=0.5;exitY=0;exitDx=0;exitDy=0;entryX=0.5;entryY=1;entryDx=0;entryDy=0;" edge="1" parent="u3Q_NO3_-VGqsI23rNcN-1" target="u3Q_NO3_-VGqsI23rNcN-5">
          <mxGeometry width="50" height="50" relative="1" as="geometry">
            <mxPoint x="896.75" y="690.95" as="sourcePoint" />
            <mxPoint x="1119.25" y="610.95" as="targetPoint" />
          </mxGeometry>
        </mxCell>
        <mxCell id="u3Q_NO3_-VGqsI23rNcN-28" value="CameraServiceManagerImpl" style="rounded=0;whiteSpace=wrap;html=1;align=center;verticalAlign=middle;fillColor=#e1d5e7;strokeColor=#9673a6;" vertex="1" parent="u3Q_NO3_-VGqsI23rNcN-1">
          <mxGeometry x="150" y="494" width="410" height="66" as="geometry" />
        </mxCell>
        <mxCell id="u3Q_NO3_-VGqsI23rNcN-29" value="" style="endArrow=classic;html=1;rounded=0;fillColor=#f8cecc;strokeColor=#0000CC;startArrow=classic;startFill=1;entryX=0.5;entryY=1;entryDx=0;entryDy=0;exitX=0.5;exitY=0;exitDx=0;exitDy=0;" edge="1" parent="u3Q_NO3_-VGqsI23rNcN-1" source="u3Q_NO3_-VGqsI23rNcN-11" target="u3Q_NO3_-VGqsI23rNcN-28">
          <mxGeometry width="50" height="50" relative="1" as="geometry">
            <mxPoint x="270" y="624" as="sourcePoint" />
            <mxPoint x="270" y="570" as="targetPoint" />
            <Array as="points">
              <mxPoint x="560" y="590" />
              <mxPoint x="355" y="590" />
            </Array>
          </mxGeometry>
        </mxCell>
        <mxCell id="u3Q_NO3_-VGqsI23rNcN-51" value="Interface" style="rounded=0;whiteSpace=wrap;html=1;align=center;verticalAlign=middle;fillColor=#e1d5e7;strokeColor=#9673a6;" vertex="1" parent="u3Q_NO3_-VGqsI23rNcN-1">
          <mxGeometry x="610" y="494" width="357" height="66" as="geometry" />
        </mxCell>
        <mxCell id="lzBk6uFQj6bkeU6I54EV-0" value="Device" style="rounded=0;whiteSpace=wrap;html=1;fontColor=#000000;align=center;verticalAlign=middle;fillColor=#FFF2CC;" vertex="1" parent="u3Q_NO3_-VGqsI23rNcN-1">
          <mxGeometry x="260" y="317.5" width="210" height="51.5" as="geometry" />
        </mxCell>
        <mxCell id="lzBk6uFQj6bkeU6I54EV-1" value="" style="rounded=0;whiteSpace=wrap;html=1;dashed=1;fillColor=#E6E6E6;strokeWidth=2;" vertex="1" parent="u3Q_NO3_-VGqsI23rNcN-1">
          <mxGeometry x="144.25" y="111" width="845.75" height="150" as="geometry" />
        </mxCell>
        <mxCell id="lzBk6uFQj6bkeU6I54EV-2" value="" style="rounded=1;whiteSpace=wrap;html=1;fillColor=none;strokeWidth=2;dashed=1;" vertex="1" parent="u3Q_NO3_-VGqsI23rNcN-1">
          <mxGeometry x="602" y="151" width="372.75" height="95" as="geometry" />
        </mxCell>
        <mxCell id="lzBk6uFQj6bkeU6I54EV-3" value="Legend" style="text;html=1;strokeColor=none;fillColor=none;align=center;verticalAlign=middle;whiteSpace=wrap;rounded=0;dashed=1;fontSize=16;fontStyle=1" vertex="1" parent="u3Q_NO3_-VGqsI23rNcN-1">
          <mxGeometry x="152.25" y="121" width="70" height="20" as="geometry" />
        </mxCell>
        <mxCell id="lzBk6uFQj6bkeU6I54EV-4" value="Invoke Type" style="text;html=1;strokeColor=none;fillColor=none;align=center;verticalAlign=middle;whiteSpace=wrap;rounded=0;dashed=1;fontSize=16;fontStyle=3" vertex="1" parent="u3Q_NO3_-VGqsI23rNcN-1">
          <mxGeometry x="624" y="156" width="120" height="20" as="geometry" />
        </mxCell>
        <mxCell id="lzBk6uFQj6bkeU6I54EV-5" value="&lt;font style=&quot;font-size: 12px&quot;&gt;&lt;b&gt;Binder&lt;/b&gt;&lt;/font&gt;" style="text;html=1;strokeColor=none;fillColor=none;align=center;verticalAlign=middle;whiteSpace=wrap;rounded=0;dashed=1;fontSize=16;fontStyle=0" vertex="1" parent="u3Q_NO3_-VGqsI23rNcN-1">
          <mxGeometry x="640.75" y="188.5" width="120" height="20" as="geometry" />
        </mxCell>
        <mxCell id="lzBk6uFQj6bkeU6I54EV-6" value="" style="endArrow=classic;startArrow=classic;html=1;fontSize=16;strokeColor=#3333FF;dashed=1;" edge="1" parent="u3Q_NO3_-VGqsI23rNcN-1">
          <mxGeometry width="50" height="50" relative="1" as="geometry">
            <mxPoint x="661.75" y="216" as="sourcePoint" />
            <mxPoint x="741.75" y="216" as="targetPoint" />
          </mxGeometry>
        </mxCell>
        <mxCell id="lzBk6uFQj6bkeU6I54EV-7" value="&lt;font style=&quot;font-size: 12px&quot;&gt;&lt;b&gt;Binder(vnd)&lt;/b&gt;&lt;/font&gt;" style="text;html=1;strokeColor=none;fillColor=none;align=center;verticalAlign=middle;whiteSpace=wrap;rounded=0;dashed=1;fontSize=16;fontStyle=0" vertex="1" parent="u3Q_NO3_-VGqsI23rNcN-1">
          <mxGeometry x="752.75" y="188.5" width="120" height="20" as="geometry" />
        </mxCell>
        <mxCell id="lzBk6uFQj6bkeU6I54EV-8" value="" style="endArrow=classic;startArrow=classic;html=1;fontSize=16;strokeColor=#FF0000;dashed=1;" edge="1" parent="u3Q_NO3_-VGqsI23rNcN-1">
          <mxGeometry width="50" height="50" relative="1" as="geometry">
            <mxPoint x="772.75" y="216" as="sourcePoint" />
            <mxPoint x="852.75" y="216" as="targetPoint" />
          </mxGeometry>
        </mxCell>
        <mxCell id="lzBk6uFQj6bkeU6I54EV-9" value="&lt;span style=&quot;font-size: 12px&quot;&gt;&lt;b&gt;Invoke&lt;/b&gt;&lt;/span&gt;" style="text;html=1;strokeColor=none;fillColor=none;align=center;verticalAlign=middle;whiteSpace=wrap;rounded=0;dashed=1;fontSize=16;fontStyle=0" vertex="1" parent="u3Q_NO3_-VGqsI23rNcN-1">
          <mxGeometry x="862.75" y="188.5" width="120" height="20" as="geometry" />
        </mxCell>
        <mxCell id="lzBk6uFQj6bkeU6I54EV-10" value="" style="endArrow=classic;startArrow=classic;html=1;fontSize=16;strokeColor=#3333FF;" edge="1" parent="u3Q_NO3_-VGqsI23rNcN-1">
          <mxGeometry width="50" height="50" relative="1" as="geometry">
            <mxPoint x="882.75" y="216" as="sourcePoint" />
            <mxPoint x="962.75" y="216" as="targetPoint" />
          </mxGeometry>
        </mxCell>
        <mxCell id="lzBk6uFQj6bkeU6I54EV-11" value="" style="rounded=1;whiteSpace=wrap;html=1;fillColor=none;strokeWidth=2;dashed=1;" vertex="1" parent="u3Q_NO3_-VGqsI23rNcN-1">
          <mxGeometry x="158" y="151" width="432" height="95" as="geometry" />
        </mxCell>
        <mxCell id="lzBk6uFQj6bkeU6I54EV-12" value="Scope" style="text;html=1;strokeColor=none;fillColor=none;align=center;verticalAlign=middle;whiteSpace=wrap;rounded=0;dashed=1;fontSize=16;fontStyle=3" vertex="1" parent="u3Q_NO3_-VGqsI23rNcN-1">
          <mxGeometry x="130" y="151" width="120" height="20" as="geometry" />
        </mxCell>
        <mxCell id="lzBk6uFQj6bkeU6I54EV-13" value="&lt;b&gt;AOSP&lt;/b&gt;" style="rounded=1;whiteSpace=wrap;html=1;shadow=0;align=center;verticalAlign=top;fillColor=#CCE5FF;" vertex="1" parent="u3Q_NO3_-VGqsI23rNcN-1">
          <mxGeometry x="317" y="196.69" width="120" height="30" as="geometry" />
        </mxCell>
        <mxCell id="lzBk6uFQj6bkeU6I54EV-14" value="&lt;b&gt;HMI&lt;/b&gt;" style="rounded=1;whiteSpace=wrap;html=1;shadow=0;align=center;verticalAlign=top;fillColor=#fff2cc;" vertex="1" parent="u3Q_NO3_-VGqsI23rNcN-1">
          <mxGeometry x="188" y="196.69" width="120" height="30" as="geometry" />
        </mxCell>
        <mxCell id="lzBk6uFQj6bkeU6I54EV-15" value="&lt;b&gt;MW&lt;/b&gt;" style="rounded=1;whiteSpace=wrap;html=1;shadow=0;align=center;verticalAlign=top;fillColor=#E5CCFF;" vertex="1" parent="u3Q_NO3_-VGqsI23rNcN-1">
          <mxGeometry x="448" y="196.69" width="120" height="30" as="geometry" />
        </mxCell>
        <mxCell id="lzBk6uFQj6bkeU6I54EV-22" value="&amp;nbsp;Binder" style="endArrow=classic;startArrow=classic;html=1;fontSize=16;strokeColor=#3333FF;dashed=1;entryX=0.5;entryY=0;entryDx=0;entryDy=0;exitX=0.75;exitY=1;exitDx=0;exitDy=0;" edge="1" parent="u3Q_NO3_-VGqsI23rNcN-1" source="lzBk6uFQj6bkeU6I54EV-20" target="u3Q_NO3_-VGqsI23rNcN-51">
          <mxGeometry width="50" height="50" relative="1" as="geometry">
            <mxPoint x="892" y="414" as="sourcePoint" />
            <mxPoint x="930" y="344" as="targetPoint" />
          </mxGeometry>
        </mxCell>
        <mxCell id="lzBk6uFQj6bkeU6I54EV-23" value="controller" style="rounded=0;whiteSpace=wrap;html=1;fontColor=#000000;align=center;verticalAlign=middle;fillColor=#FFF2CC;" vertex="1" parent="u3Q_NO3_-VGqsI23rNcN-1">
          <mxGeometry x="658.37" y="317.5" width="260" height="51.5" as="geometry" />
        </mxCell>
        <mxCell id="lzBk6uFQj6bkeU6I54EV-24" value="AisServer" style="rounded=0;whiteSpace=wrap;html=1;fillColor=#dae8fc;strokeColor=#6c8ebf;align=center;verticalAlign=middle;" vertex="1" parent="u3Q_NO3_-VGqsI23rNcN-1">
          <mxGeometry x="138.75" y="911" width="853" height="55" as="geometry" />
        </mxCell>
        <mxCell id="lzBk6uFQj6bkeU6I54EV-25" value="Binder" style="endArrow=classic;startArrow=classic;html=1;fontSize=16;strokeColor=#FF0000;dashed=1;exitX=0.5;exitY=1;exitDx=0;exitDy=0;entryX=0.5;entryY=0;entryDx=0;entryDy=0;" edge="1" parent="u3Q_NO3_-VGqsI23rNcN-1" source="lzBk6uFQj6bkeU6I54EV-19" target="lzBk6uFQj6bkeU6I54EV-24">
          <mxGeometry width="50" height="50" relative="1" as="geometry">
            <mxPoint x="560" y="860.9999999999995" as="sourcePoint" />
            <mxPoint x="1090" y="1082" as="targetPoint" />
          </mxGeometry>
        </mxCell>
        <mxCell id="lzBk6uFQj6bkeU6I54EV-78" value="" style="endArrow=classic;html=1;rounded=0;fillColor=#f8cecc;strokeColor=#0000CC;startArrow=classic;startFill=1;entryX=0;entryY=0.5;entryDx=0;entryDy=0;exitX=1;exitY=0.5;exitDx=0;exitDy=0;" edge="1" parent="u3Q_NO3_-VGqsI23rNcN-1" source="u3Q_NO3_-VGqsI23rNcN-28" target="u3Q_NO3_-VGqsI23rNcN-51">
          <mxGeometry width="50" height="50" relative="1" as="geometry">
            <mxPoint x="415" y="626" as="sourcePoint" />
            <mxPoint x="415" y="557" as="targetPoint" />
          </mxGeometry>
        </mxCell>
        <mxCell id="lzBk6uFQj6bkeU6I54EV-81" value="common" style="rounded=0;whiteSpace=wrap;html=1;align=center;verticalAlign=middle;fillColor=#e1d5e7;strokeColor=#9673a6;" vertex="1" parent="u3Q_NO3_-VGqsI23rNcN-1">
          <mxGeometry x="845.75" y="635.51" width="91" height="48.72" as="geometry" />
        </mxCell>
        <mxCell id="lzBk6uFQj6bkeU6I54EV-82" value="NativeCamera" style="rounded=0;whiteSpace=wrap;html=1;align=center;verticalAlign=middle;fillColor=#e1d5e7;strokeColor=#9673a6;" vertex="1" parent="u3Q_NO3_-VGqsI23rNcN-1">
          <mxGeometry x="358" y="635.51" width="112" height="50" as="geometry" />
        </mxCell>
        <mxCell id="lzBk6uFQj6bkeU6I54EV-83" value="FileCache" style="rounded=0;whiteSpace=wrap;html=1;align=center;verticalAlign=middle;fillColor=#e1d5e7;strokeColor=#9673a6;" vertex="1" parent="u3Q_NO3_-VGqsI23rNcN-1">
          <mxGeometry x="533" y="635.51" width="91" height="48.72" as="geometry" />
        </mxCell>
        <mxCell id="lzBk6uFQj6bkeU6I54EV-84" value="Sqlite" style="rounded=0;whiteSpace=wrap;html=1;align=center;verticalAlign=middle;fillColor=#e1d5e7;strokeColor=#9673a6;" vertex="1" parent="u3Q_NO3_-VGqsI23rNcN-1">
          <mxGeometry x="700" y="635.51" width="91" height="48.72" as="geometry" />
        </mxCell>
        <mxCell id="lzBk6uFQj6bkeU6I54EV-85" value="" style="endArrow=classic;html=1;rounded=0;fillColor=#f8cecc;strokeColor=#0000CC;startArrow=classic;startFill=1;entryX=0.5;entryY=1;entryDx=0;entryDy=0;exitX=0.5;exitY=0;exitDx=0;exitDy=0;" edge="1" parent="u3Q_NO3_-VGqsI23rNcN-1" source="u3Q_NO3_-VGqsI23rNcN-11" target="u3Q_NO3_-VGqsI23rNcN-51">
          <mxGeometry width="50" height="50" relative="1" as="geometry">
            <mxPoint x="570" y="629.73" as="sourcePoint" />
            <mxPoint x="365" y="557" as="targetPoint" />
            <Array as="points">
              <mxPoint x="560" y="590" />
              <mxPoint x="789" y="590" />
            </Array>
          </mxGeometry>
        </mxCell>
      </root>
    </mxGraphModel>
  </diagram>
</mxfile>
